<?xml version="1.0" encoding="UTF-8" standalone="no"?>
<!DOCTYPE svg PUBLIC "-//W3C//DTD SVG 1.1//EN" "http://www.w3.org/Graphics/SVG/1.1/DTD/svg11.dtd">
<svg width="100%" height="100%" viewBox="0 0 700 700" version="1.1" xmlns="http://www.w3.org/2000/svg" xmlns:xlink="http://www.w3.org/1999/xlink" xml:space="preserve" xmlns:serif="http://www.serif.com/" style="fill-rule:evenodd;clip-rule:evenodd;stroke-linecap:round;stroke-linejoin:round;stroke-miterlimit:1.5;">
    <g transform="matrix(1.36752,0.789535,-0.789535,1.36752,34.3484,-415.12)">
        <path d="M267.905,212.202L336.36,251.724L336.36,330.769L267.905,370.292L199.449,330.769L199.449,251.724L267.905,212.202Z" style="fill:rgb(235,235,235);stroke:black;stroke-width:3.17px;"/>
    </g>
    <g transform="matrix(1.36752,0.789535,-0.789535,1.36752,34.3484,-199.844)">
        <path d="M267.905,212.202L336.36,251.724L336.36,330.769L267.905,370.292L199.449,330.769L199.449,251.724L267.905,212.202Z" style="fill:rgb(235,235,235);stroke:black;stroke-width:3.17px;"/>
    </g>
    <g transform="matrix(1.36752,0.789535,-0.789535,1.36752,221.802,-307.024)">
        <path d="M267.905,212.202L336.36,251.724L336.36,330.769L267.905,370.292L199.449,330.769L199.449,251.724L267.905,212.202Z" style="fill:rgb(235,235,235);stroke:black;stroke-width:3.17px;"/>
    </g>
    <g transform="matrix(1.36752,0.789535,-0.789535,1.36752,221.802,-91.749)">
        <path d="M267.905,212.202L336.36,251.724L336.36,330.769L267.905,370.292L199.449,330.769L199.449,251.724L267.905,212.202Z" style="fill:rgb(235,235,235);stroke:black;stroke-width:3.17px;"/>
    </g>
    <g transform="matrix(1.36752,0.789535,-0.789535,1.36752,410.372,-414.068)">
        <path d="M267.905,212.202L336.36,251.724L336.36,330.769L267.905,370.292L199.449,330.769L199.449,251.724L267.905,212.202Z" style="fill:rgb(235,235,235);stroke:black;stroke-width:3.17px;"/>
    </g>
    <g transform="matrix(1.36752,0.789535,-0.789535,1.36752,410.372,-198.793)">
        <path d="M267.905,212.202L336.36,251.724L336.36,330.769L267.905,370.292L199.449,330.769L199.449,251.724L267.905,212.202Z" style="fill:rgb(235,235,235);stroke:black;stroke-width:3.17px;"/>
    </g>
    <g transform="matrix(1,0,0,1,-35.2815,-50.2879)">
        <g transform="matrix(106.648,0,0,106.648,239.684,284.35)">
        </g>
        <text x="180.371px" y="284.35px" style="font-family:'ArialMT', 'Arial', sans-serif;font-size:106.648px;">1</text>
    </g>
    <g transform="matrix(1,0,0,1,145.174,55.8129)">
        <g transform="matrix(106.648,0,0,106.648,239.684,284.35)">
        </g>
        <text x="180.371px" y="284.35px" style="font-family:'ArialMT', 'Arial', sans-serif;font-size:106.648px;">2</text>
    </g>
    <g transform="matrix(1,0,0,1,332.888,-51.3489)">
        <g transform="matrix(106.648,0,0,106.648,239.684,284.35)">
        </g>
        <text x="180.371px" y="284.35px" style="font-family:'ArialMT', 'Arial', sans-serif;font-size:106.648px;">3</text>
    </g>
    <g transform="matrix(1,0,0,1,-36.3425,165.097)">
        <g transform="matrix(106.648,0,0,106.648,239.684,284.35)">
        </g>
        <text x="180.371px" y="284.35px" style="font-family:'ArialMT', 'Arial', sans-serif;font-size:106.648px;">4</text>
    </g>
    <g transform="matrix(1,0,0,1,143.894,270.137)">
        <g transform="matrix(106.648,0,0,106.648,239.684,284.35)">
        </g>
        <text x="180.371px" y="284.35px" style="font-family:'ArialMT', 'Arial', sans-serif;font-size:106.648px;">5</text>
    </g>
    <g transform="matrix(1,0,0,1,330.766,167.219)">
        <g transform="matrix(106.648,0,0,106.648,239.684,284.35)">
        </g>
        <text x="180.371px" y="284.35px" style="font-family:'ArialMT', 'Arial', sans-serif;font-size:106.648px;">6</text>
    </g>
</svg>
